<?xml version="1.0" encoding="utf-8"?>
<!-- Generator: Adobe Illustrator 24.1.1, SVG Export Plug-In . SVG Version: 6.00 Build 0)  -->
<svg version="1.1" id="Layer_1" xmlns="http://www.w3.org/2000/svg" xmlns:xlink="http://www.w3.org/1999/xlink" x="0px" y="0px"
	 viewBox="0 0 216.7 54" style="enable-background:new 0 0 216.7 54;" xml:space="preserve">
<style type="text/css">
	.st0{clip-path:url(#SVGID_2_);}
	.st1{fill:url(#path188_1_);}
	.st2{clip-path:url(#SVGID_4_);}
	.st3{fill:url(#path208_1_);}
	.st4{clip-path:url(#SVGID_6_);}
	.st5{fill:url(#path232_1_);}
	.st6{clip-path:url(#SVGID_8_);}
	.st7{fill:url(#path252_1_);}
	.st8{clip-path:url(#SVGID_10_);}
	.st9{fill:url(#path274_1_);}
	.st10{clip-path:url(#SVGID_12_);}
	.st11{fill:url(#path294_1_);}
	.st12{clip-path:url(#SVGID_14_);}
	.st13{fill:url(#path314_1_);}
	.st14{clip-path:url(#SVGID_16_);}
	.st15{fill:#B6509D;}
	.st16{clip-path:url(#SVGID_18_);}
	.st17{fill:url(#path346_1_);}
	.st18{clip-path:url(#SVGID_20_);}
	.st19{fill:url(#path366_1_);}
	.st20{clip-path:url(#SVGID_22_);}
	.st21{fill:#AA218D;}
	.st22{display:none;}
	.st23{display:inline;fill:#AA218D;}
	.st24{display:inline;fill:#3A3A3A;}
	.st25{display:none;fill:#AA218D;stroke:#AA218D;stroke-width:0.5;stroke-miterlimit:10;}
	.st26{fill:none;stroke:#FFFFFF;stroke-miterlimit:10;}
	.st27{fill:none;stroke:#000000;stroke-width:4;stroke-miterlimit:10;}
</style>
<g id="Layer_1_1_">
	
		<g id="logo" xmlns:cc="http://creativecommons.org/ns#" xmlns:dc="http://purl.org/dc/elements/1.1/" xmlns:rdf="http://www.w3.org/1999/02/22-rdf-syntax-ns#" xmlns:svg="http://www.w3.org/2000/svg">
		<g id="layer1" transform="translate(0,-987.36218)">
			<g id="g111230" transform="translate(-85.740311,617.73898)">
				<g id="g166" transform="matrix(1.25,0,0,-1.25,-486.84702,2863.5283)">
					<g>
						<g>
							<g>
								<g>
									<g>
										<g>
											<defs>
												<path id="SVGID_1_" d="M471.5,1985c0,0-1.8-3.4-0.7-4.2l0,0c6-4.5,13.6-11.6,19.7-18l0,0c0.8-0.8,2-1.2,2.7-1.9l0,0
													l3.3,3.2c-0.1,0.1,0,0.3,0,0.3l0,0c-6.6,7.2-16.5,16.4-23.6,20.6l0,0c-0.2,0.1-0.5,0.2-0.8,0.2l0,0
													C471.9,1985.2,471.7,1985.1,471.5,1985"/>
											</defs>
											<clipPath id="SVGID_2_">
												<use xlink:href="#SVGID_1_"  style="overflow:visible;"/>
											</clipPath>
											<g id="g168" class="st0">
												<g id="g174">
													<g id="g176">
														
															<linearGradient id="path188_1_" gradientUnits="userSpaceOnUse" x1="209.1943" y1="6204.5737" x2="210.1949" y2="6204.5737" gradientTransform="matrix(74.3996 -85.1724 -85.1724 -74.3996 513367.75 481419.8125)">
															<stop  offset="0" style="stop-color:#A8248B"/>
															<stop  offset="0.3632" style="stop-color:#B6509D"/>
															<stop  offset="0.3632" style="stop-color:#B6509D"/>
															<stop  offset="1" style="stop-color:#A8248B"/>
														</linearGradient>
														<path id="path188" class="st1" d="M471.5,1985c0,0-1.8-3.4-0.7-4.2l0,0c6-4.5,13.6-11.6,19.7-18l0,0
															c0.8-0.8,2-1.2,2.7-1.9l0,0l3.3,3.2c-0.1,0.1,0,0.3,0,0.3l0,0c-6.6,7.2-16.5,16.4-23.6,20.6l0,0
															c-0.2,0.1-0.5,0.2-0.8,0.2l0,0C471.9,1985.2,471.7,1985.1,471.5,1985"/>
													</g>
												</g>
											</g>
										</g>
									</g>
								</g>
							</g>
						</g>
					</g>
				</g>
				<g id="g190" transform="matrix(1.25,0,0,-1.25,-486.84702,2863.5283)">
					<g>
						<g>
							<g>
								<g>
									<g>
										<g>
											<defs>
												<path id="SVGID_3_" d="M498.1,1987.3c-7.4-9.1-19.6-23.2-25.3-29.3l0,0c-1.2-1.2-1.1-1.4-1.6-1.9l0,0l0.4-0.4l2.8-1
													c0.5-0.1,1,0.1,1.3,0.4l0,0c7.1,6.2,19.3,18.6,30.1,31.5l0,0l0,0c0,0-3.6,1.2-5.9,1.2l0,0
													C499,1987.8,498.4,1987.7,498.1,1987.3"/>
											</defs>
											<clipPath id="SVGID_4_">
												<use xlink:href="#SVGID_3_"  style="overflow:visible;"/>
											</clipPath>
											<g id="g192" class="st2">
												<g id="g198">
													<g id="g200">
														
															<linearGradient id="path208_1_" gradientUnits="userSpaceOnUse" x1="180.9547" y1="6181.3994" x2="181.9559" y2="6181.3994" gradientTransform="matrix(-67.0244 -76.9226 -76.9226 67.0244 488113.375 -398405.4375)">
															<stop  offset="0" style="stop-color:#AB298D"/>
															<stop  offset="1" style="stop-color:#C55FA3"/>
														</linearGradient>
														<path id="path208" class="st3" d="M498.1,1987.3c-7.4-9.1-19.6-23.2-25.3-29.3l0,0c-1.2-1.2-1.1-1.4-1.6-1.9l0,0
															l0.4-0.4l2.8-1c0.5-0.1,1,0.1,1.3,0.4l0,0c7.1,6.2,19.3,18.6,30.1,31.5l0,0l0,0c0,0-3.6,1.2-5.9,1.2l0,0
															C499,1987.8,498.4,1987.7,498.1,1987.3"/>
													</g>
												</g>
											</g>
										</g>
									</g>
								</g>
							</g>
						</g>
					</g>
				</g>
				<g id="g210" transform="matrix(1.25,0,0,-1.25,-486.84702,2863.5283)">
					<g>
						<g>
							<g>
								<g>
									<g>
										<g>
											<defs>
												<path id="SVGID_5_" d="M500.3,1990.8c-13.8-5.2-32.4-14.9-40.5-21l0,0c0,0,2.5-3.5,3.6-2.9l0,0
													c10.8,6,29.6,14.8,42.2,19.8l0,0l-3.6,3.7c-0.3,0.3-0.7,0.5-1.1,0.5l0,0C500.7,1991,500.5,1990.9,500.3,1990.8"/>
											</defs>
											<clipPath id="SVGID_6_">
												<use xlink:href="#SVGID_5_"  style="overflow:visible;"/>
											</clipPath>
											<g id="g212" class="st4">
												<g id="g218">
													<g id="g220">
														
															<linearGradient id="path232_1_" gradientUnits="userSpaceOnUse" x1="191.4106" y1="6224.3271" x2="192.4111" y2="6224.3271" gradientTransform="matrix(169.7282 77.3479 77.3479 -169.7282 -513461.8125 1043610)">
															<stop  offset="0" style="stop-color:#A8248B"/>
															<stop  offset="0.5235" style="stop-color:#B6509D"/>
															<stop  offset="0.5235" style="stop-color:#B6509D"/>
															<stop  offset="1" style="stop-color:#B9358F"/>
														</linearGradient>
														<path id="path232" class="st5" d="M500.3,1990.8c-13.8-5.2-32.4-14.9-40.5-21l0,0c0,0,2.5-3.5,3.6-2.9l0,0
															c10.8,6,29.6,14.8,42.2,19.8l0,0l-3.6,3.7c-0.3,0.3-0.7,0.5-1.1,0.5l0,0C500.7,1991,500.5,1990.9,500.3,1990.8"/>
													</g>
												</g>
											</g>
										</g>
									</g>
								</g>
							</g>
						</g>
					</g>
				</g>
				<g id="g234" transform="matrix(1.25,0,0,-1.25,-486.84702,2863.5283)">
					<g>
						<g>
							<g>
								<g>
									<g>
										<g>
											<defs>
												<path id="SVGID_7_" d="M468.4,1983.4c-0.5-0.3-0.8-0.8-0.9-1.3l0,0c-0.4-6.6,1-19.5,2.4-25.6l0,0
													c0.1-0.6,0.6-1.1,1.3-1.2l0,0l3.9-0.7c0.1,0-0.1,0.1-0.1,0.1l0,0c-1.5,7.1-3.4,22.2-2.8,30.7l0,0l-0.1,0.1L468.4,1983.4
													L468.4,1983.4z"/>
											</defs>
											<clipPath id="SVGID_8_">
												<use xlink:href="#SVGID_7_"  style="overflow:visible;"/>
											</clipPath>
											<g id="g236" class="st6">
												<g id="g242">
													<g id="g244">
														
															<linearGradient id="path252_1_" gradientUnits="userSpaceOnUse" x1="209.0587" y1="6180.0264" x2="210.0585" y2="6180.0264" gradientTransform="matrix(5.2571 -74.7694 -74.7694 -5.2571 461447.7188 50102.9805)">
															<stop  offset="0" style="stop-color:#B6509D"/>
															<stop  offset="1" style="stop-color:#A8248B"/>
														</linearGradient>
														<path id="path252" class="st7" d="M468.4,1983.4c-0.5-0.3-0.8-0.8-0.9-1.3l0,0c-0.4-6.6,1-19.5,2.4-25.6l0,0
															c0.1-0.6,0.6-1.1,1.3-1.2l0,0l3.9-0.7c0.1,0-0.1,0.1-0.1,0.1l0,0c-1.5,7.1-3.4,22.2-2.8,30.7l0,0l-0.1,0.1
															L468.4,1983.4L468.4,1983.4z"/>
													</g>
												</g>
											</g>
										</g>
									</g>
								</g>
							</g>
						</g>
					</g>
				</g>
				<g id="g254" transform="matrix(1.25,0,0,-1.25,-486.84702,2863.5283)">
					<g>
						<g>
							<g>
								<g>
									<g>
										<g>
											<defs>
												<path id="SVGID_9_" d="M459.8,1969.9L459.8,1969.9l0.4-3.6c0.1-0.6,0.5-1.1,1.1-1.3l0,0c7.9-2.3,19.1-4.4,30.8-4.6l0,0
													c0.4,0,0.8,0.2,1.1,0.5l0,0l0.8,0.8c1,1,0.3,2.6-1.1,2.7l0,0C480.9,1964.8,468.2,1967.6,459.8,1969.9L459.8,1969.9z"/>
											</defs>
											<clipPath id="SVGID_10_">
												<use xlink:href="#SVGID_9_"  style="overflow:visible;"/>
											</clipPath>
											<g id="g256" class="st8">
												<g id="g262">
													<g id="g264">
														
															<linearGradient id="path274_1_" gradientUnits="userSpaceOnUse" x1="205.8491" y1="6222.2271" x2="206.8478" y2="6222.2271" gradientTransform="matrix(116.7946 -16.6846 -16.6846 -116.7946 80235.9531 732123.8125)">
															<stop  offset="0" style="stop-color:#BE4394"/>
															<stop  offset="0.3632" style="stop-color:#B6509D"/>
															<stop  offset="1" style="stop-color:#A8248B"/>
														</linearGradient>
														<path id="path274" class="st9" d="M459.8,1969.9L459.8,1969.9l0.4-3.6c0.1-0.6,0.5-1.1,1.1-1.3l0,0
															c7.9-2.3,19.1-4.4,30.8-4.6l0,0c0.4,0,0.8,0.2,1.1,0.5l0,0l0.8,0.8c1,1,0.3,2.6-1.1,2.7l0,0
															C480.9,1964.8,468.2,1967.6,459.8,1969.9L459.8,1969.9z"/>
													</g>
												</g>
											</g>
										</g>
									</g>
								</g>
							</g>
						</g>
					</g>
				</g>
				<g id="g276" transform="matrix(1.25,0,0,-1.25,-486.84702,2863.5283)">
					<g>
						<g>
							<g>
								<g>
									<g>
										<g>
											<defs>
												<path id="SVGID_11_" d="M474.4,1955.3c0.1-0.3,0.3-0.6,0.6-0.7l0,0c0.1,0,0.2-0.1,0.3-0.1l0,0c0.2,0,0.4,0.1,0.6,0.2
													l0,0c1.8,1.6,4.2,3.8,6.5,6.1l0,0l-0.7,0.1c-2.4-2.3-4.4-4.2-6.2-5.8l0,0c-0.1-0.1-0.2-0.1-0.4-0.1l0,0
													c-0.1,0-0.2,0.2-0.3,0.3l0,0c-0.4,1.9-0.8,4.2-1.1,6.7l0,0l-0.6,0.1C473.6,1959.7,474,1957.2,474.4,1955.3"/>
											</defs>
											<clipPath id="SVGID_12_">
												<use xlink:href="#SVGID_11_"  style="overflow:visible;"/>
											</clipPath>
											<g id="g278" class="st10">
												<g id="g284">
													<g id="g286">
														
															<linearGradient id="path294_1_" gradientUnits="userSpaceOnUse" x1="147.6353" y1="6317.71" x2="148.6335" y2="6317.71" gradientTransform="matrix(7.8911 25.0898 25.0898 -7.8911 -159199.125 48104.4766)">
															<stop  offset="0" style="stop-color:#D599C4"/>
															<stop  offset="1" style="stop-color:#B6509D"/>
														</linearGradient>
														<path id="path294" class="st11" d="M474.4,1955.3c0.1-0.3,0.3-0.6,0.6-0.7l0,0c0.1,0,0.2-0.1,0.3-0.1l0,0
															c0.2,0,0.4,0.1,0.6,0.2l0,0c1.8,1.6,4.2,3.8,6.5,6.1l0,0l-0.7,0.1c-2.4-2.3-4.4-4.2-6.2-5.8l0,0
															c-0.1-0.1-0.2-0.1-0.4-0.1l0,0c-0.1,0-0.2,0.2-0.3,0.3l0,0c-0.4,1.9-0.8,4.2-1.1,6.7l0,0l-0.6,0.1
															C473.6,1959.7,474,1957.2,474.4,1955.3"/>
													</g>
												</g>
											</g>
										</g>
									</g>
								</g>
							</g>
						</g>
					</g>
				</g>
				<g id="g296" transform="matrix(1.25,0,0,-1.25,-486.84702,2863.5283)">
					<g>
						<g>
							<g>
								<g>
									<g>
										<g>
											<defs>
												<path id="SVGID_13_" d="M472.1,1985.3c-0.3-0.2-0.5-0.4-0.5-0.8l0,0c-0.2-4.2,0.2-10.7,1-17.9l0,0l0.5,0.1
													c-0.8,7.2-1.2,13.6-1,17.8l0,0c0,0.1,0.1,0.3,0.2,0.3l0,0c0.1,0.1,0.3,0.1,0.4,0l0,0c1.7-1,3.5-2.3,5.6-3.9l0,0l0.5,0.3
													c-2.1,1.6-4.2,3.1-5.9,4.1l0,0c-0.1,0.1-0.3,0.1-0.5,0.1l0,0C472.4,1985.5,472.3,1985.4,472.1,1985.3"/>
											</defs>
											<clipPath id="SVGID_14_">
												<use xlink:href="#SVGID_13_"  style="overflow:visible;"/>
											</clipPath>
											<g id="g298" class="st12">
												<g id="g304">
													<g id="g306">
														
															<linearGradient id="path314_1_" gradientUnits="userSpaceOnUse" x1="269.2448" y1="6272.6245" x2="270.2446" y2="6272.6245" gradientTransform="matrix(28.1016 0 0 -28.1016 -7094.5933 178246.9688)">
															<stop  offset="0" style="stop-color:#D599C4"/>
															<stop  offset="1" style="stop-color:#B6509D"/>
														</linearGradient>
														<path id="path314" class="st13" d="M472.1,1985.3c-0.3-0.2-0.5-0.4-0.5-0.8l0,0c-0.2-4.2,0.2-10.7,1-17.9l0,0l0.5,0.1
															c-0.8,7.2-1.2,13.6-1,17.8l0,0c0,0.1,0.1,0.3,0.2,0.3l0,0c0.1,0.1,0.3,0.1,0.4,0l0,0c1.7-1,3.5-2.3,5.6-3.9l0,0
															l0.5,0.3c-2.1,1.6-4.2,3.1-5.9,4.1l0,0c-0.1,0.1-0.3,0.1-0.5,0.1l0,0C472.4,1985.5,472.3,1985.4,472.1,1985.3"/>
													</g>
												</g>
											</g>
										</g>
									</g>
								</g>
							</g>
						</g>
					</g>
				</g>
				<g id="g316" transform="matrix(1.25,0,0,-1.25,-486.84702,2863.5283)">
					<g>
						<g>
							<g>
								<g>
									<g>
										<g>
											<defs>
												<rect id="SVGID_15_" x="-1807.1" y="-1498.9" width="5242.6" height="5548.9"/>
											</defs>
											<clipPath id="SVGID_16_">
												<use xlink:href="#SVGID_15_"  style="overflow:visible;"/>
											</clipPath>
											<g id="g318" class="st14">
												<g id="g324" transform="translate(497.238,1970.976)">
													<path id="path326" class="st15" d="M-10.4,2.9c-1.2,1.1-2.3,2-3.4,3l0.4,0.4c1.2-1,2.2-1.9,3.4-3L-10.4,2.9z"/>
												</g>
											</g>
										</g>
									</g>
								</g>
							</g>
						</g>
					</g>
				</g>
				<g id="g328" transform="matrix(1.25,0,0,-1.25,-486.84702,2863.5283)">
					<g>
						<g>
							<g>
								<g>
									<g>
										<g>
											<defs>
												<path id="SVGID_17_" d="M465.8,1974.2c-2.2-1.3-4.2-2.5-5.8-3.7l0,0c-0.2-0.2-0.3-0.4-0.3-0.7l0,0
													c0.1-0.3,0.3-0.5,0.5-0.6l0,0c3.4-0.9,7.9-1.9,12.6-2.8l0,0c8.6-1.6,16.4-2.5,23.2-2.6l0,0l0,0l0,0
													c0.3,0,0.5,0.2,0.7,0.4l0,0c0.1,0.3,0.1,0.6-0.1,0.8l0,0c-1.6,1.7-3.3,3.5-5.2,5.3l0,0l-0.4-0.4
													c1.9-1.8,3.6-3.6,5.2-5.3l0,0c0.1-0.1,0-0.2,0-0.2l0,0c0,0-0.1-0.1-0.2-0.1l0,0c-6.8,0.1-14.6,1-23.1,2.6l0,0
													c-4.7,0.9-9.1,1.9-12.5,2.8l0,0c-0.1,0-0.1,0.1-0.1,0.1l0,0c0,0,0,0.1,0.1,0.2l0,0c1.5,1.1,3.6,2.3,5.7,3.6l0,0
													c0.5,0.3,1.1,0.6,1.5,0.9l0,0v0.6C467.1,1975,466.3,1974.5,465.8,1974.2"/>
											</defs>
											<clipPath id="SVGID_18_">
												<use xlink:href="#SVGID_17_"  style="overflow:visible;"/>
											</clipPath>
											<g id="g330" class="st16">
												<g id="g336">
													<g id="g338">
														
															<linearGradient id="path346_1_" gradientUnits="userSpaceOnUse" x1="200.5937" y1="6222.814" x2="201.5926" y2="6222.814" gradientTransform="matrix(141.2735 0 0 -141.2735 -27878.7852 881088.125)">
															<stop  offset="0" style="stop-color:#D599C4"/>
															<stop  offset="1" style="stop-color:#B6509D"/>
														</linearGradient>
														<path id="path346" class="st17" d="M465.8,1974.2c-2.2-1.3-4.2-2.5-5.8-3.7l0,0c-0.2-0.2-0.3-0.4-0.3-0.7l0,0
															c0.1-0.3,0.3-0.5,0.5-0.6l0,0c3.4-0.9,7.9-1.9,12.6-2.8l0,0c8.6-1.6,16.4-2.5,23.2-2.6l0,0l0,0l0,0
															c0.3,0,0.5,0.2,0.7,0.4l0,0c0.1,0.3,0.1,0.6-0.1,0.8l0,0c-1.6,1.7-3.3,3.5-5.2,5.3l0,0l-0.4-0.4
															c1.9-1.8,3.6-3.6,5.2-5.3l0,0c0.1-0.1,0-0.2,0-0.2l0,0c0,0-0.1-0.1-0.2-0.1l0,0c-6.8,0.1-14.6,1-23.1,2.6l0,0
															c-4.7,0.9-9.1,1.9-12.5,2.8l0,0c-0.1,0-0.1,0.1-0.1,0.1l0,0c0,0,0,0.1,0.1,0.2l0,0c1.5,1.1,3.6,2.3,5.7,3.6l0,0
															c0.5,0.3,1.1,0.6,1.5,0.9l0,0v0.6C467.1,1975,466.3,1974.5,465.8,1974.2"/>
													</g>
												</g>
											</g>
										</g>
									</g>
								</g>
							</g>
						</g>
					</g>
				</g>
				<g id="g348" transform="matrix(1.25,0,0,-1.25,-486.84702,2863.5283)">
					<g>
						<g>
							<g>
								<g>
									<g>
										<g>
											<defs>
												<path id="SVGID_19_" d="M504.7,1986.9c-8.9-3.6-21.2-9.3-32-14.9l0,0l0.1-0.6c10.8,5.5,23.3,11.3,32.2,15l0,0
													c0.2,0.1,0.3,0,0.3-0.1l0,0c0,0,0.1-0.2,0-0.3l0,0c-5.7-6.8-12.5-14.2-19.3-21l0,0l0.7-0.1c6.8,6.8,13.3,13.9,19,20.7
													l0,0c0.2,0.3,0.3,0.7,0,1l0,0c-0.2,0.2-0.4,0.3-0.6,0.3l0,0C504.9,1987,504.8,1987,504.7,1986.9"/>
											</defs>
											<clipPath id="SVGID_20_">
												<use xlink:href="#SVGID_19_"  style="overflow:visible;"/>
											</clipPath>
											<g id="g350" class="st18">
												<g id="g356">
													<g id="g358">
														
															<linearGradient id="path366_1_" gradientUnits="userSpaceOnUse" x1="202.5937" y1="6224.2686" x2="203.5925" y2="6224.2686" gradientTransform="matrix(126.4406 0 0 -126.4406 -25143.4395 788976.3125)">
															<stop  offset="0" style="stop-color:#D599C4"/>
															<stop  offset="1" style="stop-color:#BF5DA2"/>
														</linearGradient>
														<path id="path366" class="st19" d="M504.7,1986.9c-8.9-3.6-21.2-9.3-32-14.9l0,0l0.1-0.6c10.8,5.5,23.3,11.3,32.2,15
															l0,0c0.2,0.1,0.3,0,0.3-0.1l0,0c0,0,0.1-0.2,0-0.3l0,0c-5.7-6.8-12.5-14.2-19.3-21l0,0l0.7-0.1
															c6.8,6.8,13.3,13.9,19,20.7l0,0c0.2,0.3,0.3,0.7,0,1l0,0c-0.2,0.2-0.4,0.3-0.6,0.3l0,0
															C504.9,1987,504.8,1987,504.7,1986.9"/>
													</g>
												</g>
											</g>
										</g>
									</g>
								</g>
							</g>
						</g>
					</g>
				</g>
				<g id="g368" transform="matrix(1.25,0,0,-1.25,-486.84702,2863.5283)">
					<g>
						<g>
							<g>
								<g>
									<g>
										<g>
											<defs>
												<rect id="SVGID_21_" x="-1807.1" y="-1498.9" width="5242.6" height="5548.9"/>
											</defs>
											<clipPath id="SVGID_22_">
												<use xlink:href="#SVGID_21_"  style="overflow:visible;"/>
											</clipPath>
											<g id="g370" class="st20">
												<g id="g376" transform="translate(551.7153,1970.3967)">
													<path id="path378" class="st21" d="M-25.5,5.5L-25.8,7c0,0.2-0.2,0.3-0.4,0.3c-0.3,0-1.6-0.5-3.5-0.5
														c-2.6,0-3,2.1-3,4.6c0,2.4,0.4,4.6,3,4.6c1.2,0,3-0.3,3.4-0.5c0.2-0.1,0.4,0.1,0.5,0.3c0,0,0.3,1.1,0.3,1.3
														c0.1,0.2-0.1,0.4-0.2,0.5c-1,0.4-2.7,0.7-4,0.7c-4.6,0-6.2-2.3-6.2-6.9s1.6-6.9,6.2-6.9c1.3,0,3,0.4,3.9,0.7
														C-25.6,5.2-25.5,5.3-25.5,5.5"/>
												</g>
												<g id="g380" transform="translate(566.5527,1972.4825)">
													<path id="path382" class="st21" d="M-29.6,4.9c-0.7-0.3-1.2-0.4-3-0.4c-1.6,0-2.2,0.9-2.2,2c0,1.4,0.4,1.7,1.6,2
														c1.4,0.3,1.9,0.4,3.6,0.6V4.9z M-31.9,16.1c-1.6,0-3.7-0.4-5-0.8l0,0c-0.2-0.1-0.3-0.2-0.3-0.4v-0.1l0.3-1.3
														c0-0.2,0.2-0.3,0.4-0.3h0.1c1.3,0.3,3.1,0.6,4.1,0.6c2.7,0,2.7-0.5,2.7-2.6c-2.2-0.3-3.5-0.6-5.2-0.9
														c-2.6-0.5-3.1-1.7-3.1-3.9c0-2.7,1.6-4.1,5.6-4.1c2.6,0,5.9,0.2,5.9,2.2v7.8C-26.5,15-27.7,16.1-31.9,16.1"/>
												</g>
												<g id="g384" transform="translate(625.0671,1972.4825)">
													<path id="path386" class="st21" d="M-45.8,4.9c-0.7-0.3-1.2-0.4-3-0.4c-1.6,0-2.2,0.9-2.2,2c0,1.4,0.4,1.7,1.6,2
														c1.4,0.3,1.9,0.4,3.6,0.6C-45.8,9.1-45.8,4.9-45.8,4.9z M-48.1,16.1c-1.6,0-3.7-0.4-5-0.8l0,0
														c-0.2-0.1-0.3-0.2-0.3-0.4v-0.1l0.3-1.3c0-0.2,0.2-0.3,0.4-0.3h0.1c1.3,0.3,3.1,0.6,4.1,0.6c2.7,0,2.7-0.5,2.7-2.6
														c-2.2-0.3-3.5-0.6-5.2-0.9c-2.6-0.5-3.1-1.7-3.1-3.9c0-2.7,1.6-4.1,5.6-4.1c2.6,0,5.9,0.2,5.9,2.2v7.8
														C-42.7,15-43.9,16.1-48.1,16.1"/>
												</g>
												<g id="g388" transform="translate(591.2089,1987.5038)">
													<path id="path390" class="st21" d="M-36.4,0.8H-39c-0.2,0-0.3-0.1-0.4-0.3l0,0c-0.5-1.7-2.5-9.6-2.8-10.4
														c-0.1-0.2-0.3-0.2-0.3-0.2s-0.3,0-0.3,0.2c-0.2,0.8-2.3,8.6-2.8,10.4l0,0c0,0.2-0.2,0.3-0.4,0.3h-2.6
														c-0.2,0-0.4-0.2-0.4-0.4V0.3l0,0c0.6-2.1,3-9.9,3.7-12.3c0-0.1,0.2-0.3,0.5-0.3h2.3h2.3c0.2,0,0.4,0.2,0.5,0.3
														c0.8,2.5,3.1,10.3,3.7,12.3l0,0v0.1C-36,0.6-36.2,0.8-36.4,0.8"/>
												</g>
												<g id="g392" transform="translate(605.886,1979.3256)">
													<path id="path394" class="st21" d="M-40.5,3h-5.6c0,2,0,3.9,2.9,3.9C-40.3,6.9-40.5,4.8-40.5,3 M-43.1,9.2
														c-5.1,0-6.2-3-6.2-7.1c0-4.3,1.9-6.6,6.3-6.6c2.8,0,3.9,0.5,4.8,0.8c0.1,0.1,0.2,0.2,0.2,0.3c0,0-0.3,1.3-0.3,1.5
														s-0.2,0.3-0.4,0.3c-0.3,0-1.6-0.6-3.7-0.6c-2.5,0-3.8,1.1-3.8,3.2h8.3c0.3,0,0.5,0.3,0.5,0.6v1.9
														C-37.4,5.7-38,9.2-43.1,9.2"/>
												</g>
												<g id="g396" transform="translate(542.997,1949.7264)" class="st22">
													<path id="path398" class="st23" d="M-23.1,15.2c-0.1,0-0.8-0.1-1.5-0.1c-1.1,0-2.6,0.5-2.6,2.8v1.4
														c0,2.3,1.5,2.8,2.6,2.8c0.7,0,1.3-0.1,1.5-0.1c0.1,0,0.2-0.1,0.2-0.2v-0.6c0-0.1,0-0.2-0.2-0.2l0,0
														c-0.3,0-1,0.1-1.4,0.1c-0.8,0-1.3-0.4-1.3-1.7V18c0-1.3,0.6-1.7,1.3-1.7c0.5,0,1.1,0,1.4,0.1l0,0
														c0.1,0,0.2-0.1,0.2-0.2v-0.6C-22.9,15.3-23,15.3-23.1,15.2"/>
												</g>
												<g id="g400" transform="translate(553.02,1949.6234)" class="st22">
													<path id="path402" class="st23" d="M-25.9,15.2h-0.9c-0.1,0-0.2,0.1-0.2,0.2v6.5c0,0.1,0.1,0.2,0.2,0.2h0.9
														c0.1,0,0.2-0.1,0.2-0.2v-6.5C-25.7,15.3-25.8,15.2-25.9,15.2"/>
												</g>
												<g id="g404" transform="translate(568.5737,1949.6234)" class="st22">
													<path id="path406" class="st23" d="M-30.2,15.2h-0.9c-0.2,0-0.4,0-0.6,0.3l-2.1,4.5c0,0.1-0.1,0.1-0.1,0.1s0,0,0-0.1
														v-4.7c0-0.1-0.1-0.2-0.2-0.2h-0.8c-0.1,0-0.2,0.1-0.2,0.2v6.3c0,0.2,0.2,0.4,0.4,0.4h1c0.2,0,0.3-0.1,0.4-0.3l2.2-4.8
														c0,0,0-0.1,0.1-0.1c0,0,0,0,0,0.1v4.9c0,0.1,0.1,0.2,0.2,0.2h0.8c0.1,0,0.2-0.1,0.2-0.2v-6.3
														C-29.8,15.4-30,15.2-30.2,15.2"/>
												</g>
												<g id="g408" transform="translate(583.0886,1949.7003)" class="st22">
													<path id="path410" class="st23" d="M-34.2,15.2c-0.3,0-0.7-0.1-1.8-0.1c-1.2,0-2.1,0.3-2.1,1.9v3.2
														c0,1.6,0.9,1.9,2.1,1.9c1.1,0,1.5-0.1,1.8-0.1c0.1,0,0.2-0.1,0.2-0.2v-0.6c0-0.1-0.1-0.2-0.2-0.2h-1.9
														c-0.5,0-0.7-0.2-0.7-0.8v-1h2.5c0.1,0,0.2-0.1,0.2-0.2v-0.7c0-0.1-0.1-0.2-0.2-0.2h-2.5v-1.2c0-0.6,0.2-0.8,0.7-0.8
														h1.9c0.1,0,0.2-0.1,0.2-0.2v-0.6C-34,15.3-34,15.2-34.2,15.2"/>
												</g>
												<g id="g412" transform="translate(599.7718,1949.6234)" class="st22">
													<path id="path414" class="st23" d="M-38.8,15.2h-0.9c-0.1,0-0.1,0.1-0.1,0.2v4.3c0,0.1,0,0.1,0,0.1s0,0,0-0.1l-0.9-1.8
														c-0.1-0.1-0.2-0.2-0.3-0.2h-0.9c-0.1,0-0.2,0.1-0.3,0.2l-0.9,1.8v0.1c0,0,0,0,0-0.1v-4.3c0-0.1-0.1-0.2-0.1-0.2h-0.9
														c-0.1,0-0.2,0-0.2,0.1v6.4c0,0.2,0.2,0.4,0.4,0.4h0.8c0.1,0,0.3-0.1,0.3-0.2l1.4-2.8c0-0.1,0.1-0.1,0.1-0.1
														s0.1,0,0.1,0.1l1.4,2.8c0.1,0.1,0.2,0.2,0.3,0.2h0.8c0.2,0,0.4-0.2,0.4-0.4v-6.4C-38.6,15.3-38.7,15.2-38.8,15.2"/>
												</g>
												<g id="g416" transform="translate(611.9766,1957.5544)" class="st22">
													<path id="path418" class="st23" d="M-42.2,13.1c0,0.1-0.1,0.1-0.1,0.1c-0.1,0-0.1,0-0.2-0.1l-0.7-2.8h1.6L-42.2,13.1z
														 M-39.7,7.3h-1c-0.1,0-0.2,0.1-0.2,0.2l-0.4,1.8h-2.1l-0.4-1.8c0-0.1-0.1-0.2-0.2-0.2h-1c-0.1,0-0.2,0.1-0.2,0.2l0,0
														l1.5,5.8c0.2,0.9,0.9,0.9,1.3,0.9s1.1-0.1,1.3-0.9l1.5-5.8l0,0C-39.5,7.4-39.6,7.3-39.7,7.3"/>
												</g>
												<g id="g420" transform="translate(625.9517,1949.5204)" class="st22">
													<path id="path422" class="st23" d="M-46,15.3c-0.7,0-1.2,0.1-1.6,0.2c-0.1,0-0.2,0.1-0.2,0.2v0.7
														c0,0.1,0.1,0.2,0.2,0.2l0,0c0.4,0,1.3-0.1,1.6-0.1c0.8,0,1.1,0.3,1.1,0.8c0,0.4-0.2,0.5-0.8,0.9l-1.2,0.7
														c-0.9,0.5-1.1,1-1.1,1.7c0,1,0.6,1.8,2.3,1.8c0.6,0,1.5-0.1,1.8-0.2c0.1,0,0.2-0.1,0.2-0.2v-0.7c0-0.1-0.1-0.2-0.2-0.2
														l0,0c-0.6,0.1-1.2,0.1-1.8,0.1c-0.7,0-1-0.2-1-0.7c0-0.3,0.2-0.5,0.8-0.8l1.1-0.6c1-0.6,1.3-1.2,1.3-1.9
														C-43.6,16.3-44.2,15.3-46,15.3"/>
												</g>
											</g>
										</g>
									</g>
								</g>
							</g>
						</g>
					</g>
				</g>
			</g>
		</g>
		<g class="st22">
			<path class="st24" d="M73.2,48.4v-5.9H74v5.1h3.2v0.7L73.2,48.4L73.2,48.4z"/>
			<path class="st24" d="M78,48.4v-5.9h4.1v0.8h-3.3V45h3.3v0.7h-3.3v1.9h3.3v0.7L78,48.4L78,48.4z"/>
			<path class="st24" d="M82.3,43.3v-0.8h4.4v0.8h-1.8v5.1h-0.8v-5.1H82.3z"/>
			<path class="st24" d="M87.5,43.5v-1h0.8v1c0,0.2-0.1,0.4-0.2,0.5s-0.3,0.2-0.6,0.2v-0.5c0.1,0,0.2,0,0.2-0.1s0.1-0.1,0.1-0.1l0,0
				L87.5,43.5L87.5,43.5z"/>
			<path class="st24" d="M89.7,46.4h0.8v0.2c0,0.2,0,0.3,0,0.4s0,0.2,0.1,0.3c0,0.1,0.1,0.2,0.2,0.3c0,0,0.1,0,0.2,0.1
				c0.1,0,0.1,0,0.2,0s0.2,0,0.4,0c0.2,0,0.4,0,0.7,0c0.3,0,0.5,0,0.7-0.1c0.2,0,0.3-0.1,0.4-0.2c0,0,0.1-0.1,0.1-0.2s0-0.3,0-0.5
				c0-0.4,0-0.6-0.1-0.7s-0.2-0.1-0.4-0.2l-1.7-0.1c-0.5,0-0.9-0.2-1.1-0.4C90.1,45.2,90,45,90,44.8c-0.1-0.2-0.1-0.4-0.1-0.7
				s0-0.6,0.1-0.8s0.2-0.4,0.3-0.5c0.1-0.1,0.3-0.2,0.5-0.2c0.1,0,0.2,0,0.4,0c0.2,0,0.4,0,0.7,0h0.2c0.6,0,1,0,1.2,0.1
				s0.5,0.2,0.6,0.3c0.2,0.2,0.3,0.6,0.3,1.1c0,0.1,0,0.1,0,0.2s0,0.1,0,0.1h-0.8v-0.2c0-0.2,0-0.3,0-0.4s-0.1-0.2-0.1-0.2
				c-0.1-0.1-0.2-0.1-0.4-0.1c-0.2,0-0.6,0-1.1,0c-0.3,0-0.5,0-0.7,0s-0.3,0.1-0.4,0.1c-0.1,0.1-0.2,0.4-0.2,0.7c0,0.2,0,0.3,0,0.4
				s0.1,0.2,0.1,0.2l0,0c0,0.1,0.1,0.1,0.2,0.1s0.2,0.1,0.3,0.1l1.8,0.1c0.5,0,0.8,0.2,1,0.4s0.3,0.6,0.3,1.1c0,0.2,0,0.4,0,0.5
				s0,0.3-0.1,0.4C94,47.8,94,48,93.8,48.1c-0.1,0.1-0.2,0.1-0.3,0.2c-0.1,0.1-0.2,0.1-0.3,0.1s-0.3,0.1-0.5,0.1s-0.5,0-0.8,0h-0.3
				c-0.3,0-0.5,0-0.7,0s-0.3,0-0.5-0.1c-0.1,0-0.2-0.1-0.3-0.1c-0.1,0-0.2-0.1-0.3-0.2l0,0c-0.2-0.1-0.3-0.3-0.3-0.5
				c-0.1-0.2-0.1-0.5-0.1-0.8L89.7,46.4L89.7,46.4z"/>
			<path class="st24" d="M98.1,44.5c0-0.7,0.2-1.3,0.5-1.6s0.9-0.4,1.6-0.4h0.7c0.7,0,1.3,0.1,1.6,0.4s0.5,0.6,0.5,1.2v0.3h-0.8
				v-0.1c0-0.4-0.1-0.6-0.3-0.8c-0.2-0.1-0.5-0.2-1.1-0.2h-0.5c-0.2,0-0.4,0-0.5,0s-0.2,0-0.3,0c-0.2,0-0.3,0.1-0.4,0.2
				s-0.2,0.2-0.2,0.3l0,0c0,0.1,0,0.2,0,0.3s0,0.3,0,0.5v1.6c0,0.2,0,0.4,0,0.5s0,0.2,0,0.3l0,0c0,0.1,0.1,0.3,0.2,0.3
				c0.1,0.1,0.2,0.2,0.4,0.2c0.1,0,0.2,0,0.3,0c0.1,0,0.3,0,0.5,0h0.5c0.4,0,0.6,0,0.7-0.1c0.1,0,0.1,0,0.2-0.1
				c0.1,0,0.1-0.1,0.2-0.1c0.1-0.1,0.2-0.2,0.2-0.3s0-0.2,0-0.3s0-0.3,0-0.5v-0.3h-1.6v-0.7h2.4v1c0,0.7-0.2,1.3-0.5,1.6
				s-0.9,0.4-1.6,0.4h-0.7c-0.8,0-1.3-0.1-1.6-0.4c-0.3-0.3-0.5-0.8-0.5-1.6L98.1,44.5L98.1,44.5z"/>
			<path class="st24" d="M104,44.5c0-0.7,0.2-1.3,0.5-1.6s0.9-0.4,1.6-0.4h0.7c0.8,0,1.3,0.1,1.7,0.4l0,0c0.3,0.3,0.5,0.8,0.5,1.6
				v1.9c0,0.7-0.2,1.3-0.5,1.6s-0.9,0.4-1.6,0.4h-0.7c-0.8,0-1.3-0.1-1.6-0.4c-0.3-0.3-0.5-0.8-0.5-1.6L104,44.5L104,44.5z
				 M106.3,43.2c-0.2,0-0.4,0-0.5,0s-0.2,0-0.3,0c-0.2,0-0.3,0.1-0.4,0.2s-0.2,0.2-0.2,0.4s-0.1,0.4-0.1,0.8v1.6c0,0.2,0,0.4,0,0.5
				s0,0.2,0,0.3s0.1,0.1,0.1,0.2s0.1,0.1,0.1,0.2c0.1,0.1,0.2,0.2,0.4,0.2c0.1,0,0.2,0,0.3,0c0.1,0,0.3,0,0.5,0h0.4
				c0.2,0,0.4,0,0.5,0s0.2,0,0.3,0c0.2,0,0.3-0.1,0.4-0.2s0.2-0.2,0.2-0.3s0-0.2,0-0.3s0-0.3,0-0.5v-1.6c0-0.2,0-0.4,0-0.5
				s0-0.2,0-0.3s-0.1-0.3-0.2-0.4c-0.1,0-0.1-0.1-0.2-0.1s-0.1-0.1-0.2-0.1s-0.2,0-0.3,0c-0.1,0-0.3,0-0.5,0L106.3,43.2L106.3,43.2z
				"/>
			<path class="st24" d="M112,43.3v-0.8h4.4v0.8h-1.8v5.1h-0.8v-5.1C113.8,43.3,112,43.3,112,43.3z"/>
			<path class="st24" d="M116.8,44.5c0-0.7,0.2-1.3,0.5-1.6s0.9-0.4,1.6-0.4h0.7c0.8,0,1.3,0.1,1.7,0.4l0,0c0.3,0.3,0.5,0.8,0.5,1.6
				v1.9c0,0.7-0.2,1.3-0.5,1.6s-0.9,0.4-1.6,0.4H119c-0.8,0-1.3-0.1-1.6-0.4s-0.5-0.8-0.5-1.6L116.8,44.5L116.8,44.5z M119.1,43.2
				c-0.2,0-0.4,0-0.5,0s-0.2,0-0.3,0s-0.3,0.1-0.4,0.2c-0.1,0.1-0.2,0.2-0.2,0.4s-0.1,0.4-0.1,0.8v1.6c0,0.2,0,0.4,0,0.5
				s0,0.2,0,0.3s0.1,0.1,0.1,0.2s0.1,0.1,0.1,0.2c0.1,0.1,0.2,0.2,0.4,0.2c0.1,0,0.2,0,0.3,0s0.3,0,0.5,0h0.4c0.2,0,0.4,0,0.5,0
				s0.2,0,0.3,0c0.2,0,0.3-0.1,0.4-0.2c0.1-0.1,0.2-0.2,0.2-0.3s0-0.2,0-0.3s0-0.3,0-0.5v-1.6c0-0.2,0-0.4,0-0.5s0-0.2,0-0.3
				s-0.1-0.3-0.2-0.4c-0.1,0-0.1-0.1-0.2-0.1s-0.1-0.1-0.2-0.1s-0.2,0-0.3,0s-0.3,0-0.5,0L119.1,43.2L119.1,43.2z"/>
			<path class="st24" d="M125.7,48.4v-5.9h1.2l1.9,4.9c0.3-0.8,0.6-1.6,0.9-2.5s0.6-1.6,0.9-2.4h1.2v5.8H131v-4.8
				c-0.3,0.8-0.6,1.6-0.9,2.4c-0.3,0.8-0.6,1.6-0.9,2.4h-0.9l-1.8-4.8v4.8L125.7,48.4L125.7,48.4z"/>
			<path class="st24" d="M133,44.5c0-0.7,0.2-1.3,0.5-1.6s0.9-0.4,1.6-0.4h0.7c0.8,0,1.3,0.1,1.7,0.4l0,0c0.3,0.3,0.5,0.8,0.5,1.6
				v1.9c0,0.7-0.2,1.3-0.5,1.6s-0.9,0.4-1.6,0.4h-0.7c-0.8,0-1.3-0.1-1.6-0.4s-0.5-0.8-0.5-1.6L133,44.5L133,44.5z M135.3,43.2
				c-0.2,0-0.4,0-0.5,0s-0.2,0-0.3,0s-0.3,0.1-0.4,0.2c-0.1,0.1-0.2,0.2-0.2,0.4s-0.1,0.4-0.1,0.8v1.6c0,0.2,0,0.4,0,0.5
				s0,0.2,0.1,0.3c0,0.1,0.1,0.1,0.1,0.2s0.1,0.1,0.1,0.2c0.1,0.1,0.2,0.2,0.4,0.2c0.1,0,0.2,0,0.3,0s0.3,0,0.5,0h0.4
				c0.2,0,0.4,0,0.5,0s0.2,0,0.3,0c0.2,0,0.3-0.1,0.4-0.2c0.1-0.1,0.2-0.2,0.2-0.3s0-0.2,0-0.3s0-0.3,0-0.5v-1.6c0-0.2,0-0.4,0-0.5
				s0-0.2,0-0.3s-0.1-0.3-0.2-0.4c-0.1,0-0.1-0.1-0.2-0.1c-0.1,0-0.1-0.1-0.2-0.1c-0.1,0-0.2,0-0.3,0s-0.3,0-0.5,0L135.3,43.2
				L135.3,43.2z"/>
			<path class="st24" d="M138.4,42.5h0.8l1.8,4.9c0.3-0.8,0.6-1.6,0.9-2.5c0.3-0.8,0.6-1.6,0.9-2.5h0.8l-2.1,5.8h-0.9L138.4,42.5z"
				/>
			<path class="st24" d="M144.2,48.4v-5.9h0.8v5.8h-0.8V48.4z"/>
			<path class="st24" d="M146.4,48.4v-5.9h4.1v0.8h-3.3V45h3.3v0.7h-3.3v1.9h3.3v0.7L146.4,48.4L146.4,48.4z"/>
			<path class="st24" d="M151.3,46.4h0.8v0.2c0,0.2,0,0.3,0,0.4s0,0.2,0.1,0.3c0,0.1,0.1,0.2,0.2,0.3c0,0,0.1,0,0.2,0.1
				c0.1,0,0.1,0,0.2,0c0.1,0,0.2,0,0.4,0s0.4,0,0.7,0s0.5,0,0.7-0.1c0.2,0,0.3-0.1,0.4-0.2c0,0,0.1-0.1,0.1-0.2s0-0.3,0-0.5
				c0-0.4,0-0.6-0.1-0.7s-0.2-0.1-0.4-0.2l-1.7-0.1c-0.5,0-0.9-0.2-1.1-0.4c-0.1-0.1-0.2-0.3-0.2-0.5c-0.1-0.2-0.1-0.4-0.1-0.7
				s0-0.6,0.1-0.8s0.2-0.4,0.3-0.5s0.3-0.2,0.5-0.2c0.1,0,0.2,0,0.4,0s0.4,0,0.7,0h0.2c0.6,0,1,0,1.2,0.1s0.5,0.2,0.6,0.3
				c0.2,0.2,0.3,0.6,0.3,1.1c0,0.1,0,0.1,0,0.2s0,0.1,0,0.1H155v-0.2c0-0.2,0-0.3,0-0.4s-0.1-0.2-0.1-0.2c-0.1-0.1-0.2-0.1-0.4-0.1
				s-0.6,0-1.1,0c-0.3,0-0.5,0-0.7,0s-0.3,0.1-0.4,0.1c-0.1,0.1-0.2,0.4-0.2,0.7c0,0.2,0,0.3,0,0.4s0.1,0.2,0.1,0.2l0,0
				c0,0.1,0.1,0.1,0.2,0.1c0.1,0,0.2,0.1,0.3,0.1l1.8,0.1c0.5,0,0.8,0.2,1,0.4s0.3,0.6,0.3,1.1c0,0.2,0,0.4,0,0.5s0,0.3-0.1,0.4
				c-0.1,0.2-0.1,0.4-0.3,0.5c-0.1,0.1-0.2,0.1-0.3,0.2s-0.2,0.1-0.3,0.1s-0.3,0.1-0.5,0.1s-0.5,0-0.8,0h-0.3c-0.3,0-0.5,0-0.7,0
				s-0.3,0-0.5-0.1c-0.1,0-0.2-0.1-0.3-0.1s-0.2-0.1-0.3-0.2l0,0c-0.1-0.1-0.3-0.3-0.3-0.5c-0.1-0.2-0.1-0.5-0.1-0.8L151.3,46.4
				L151.3,46.4L151.3,46.4z"/>
		</g>
	</g>
	<g id="Layer_2_1_">
	</g>
	<g>
		<path class="st25" d="M73.3,38.5v-6.3h1.3l2.1,5.3c0.3-0.9,0.7-1.8,1-2.7s0.7-1.8,1-2.7H80v6.3h-0.8v-5.2c-0.3,0.9-0.7,1.7-1,2.6
			s-0.7,1.7-1,2.6h-1l-2-5.2v5.2C74.1,38.5,73.3,38.5,73.3,38.5z"/>
		<path class="st25" d="M81.2,34.3c0-0.8,0.2-1.4,0.5-1.7s0.9-0.5,1.8-0.5h0.8c0.9,0,1.5,0.2,1.8,0.5l0,0c0.3,0.3,0.5,0.9,0.5,1.7
			v2.1c0,0.8-0.2,1.4-0.5,1.7s-0.9,0.5-1.8,0.5h-0.8c-0.9,0-1.5-0.2-1.8-0.5s-0.5-0.9-0.5-1.7V34.3L81.2,34.3z M83.7,32.9
			c-0.2,0-0.4,0-0.5,0s-0.3,0-0.4,0c-0.2,0-0.3,0.1-0.4,0.2s-0.2,0.2-0.2,0.4s-0.1,0.5-0.1,0.9v1.7c0,0.2,0,0.4,0,0.5s0,0.3,0.1,0.4
			c0,0.1,0.1,0.1,0.1,0.2s0.1,0.1,0.1,0.2c0.1,0.1,0.3,0.2,0.4,0.2s0.2,0,0.4,0.1c0.1,0,0.3,0,0.5,0h0.4c0.2,0,0.4,0,0.5,0
			c0.2,0,0.3,0,0.4-0.1c0.2,0,0.3-0.1,0.4-0.2s0.2-0.2,0.2-0.4c0-0.1,0-0.2,0.1-0.3c0-0.1,0-0.3,0-0.6v-1.6c0-0.2,0-0.4,0-0.5
			s0-0.3-0.1-0.4c0-0.2-0.1-0.3-0.2-0.4c-0.1,0-0.1-0.1-0.2-0.1S85.1,33,85,33s-0.2,0-0.4,0c-0.1,0-0.3,0-0.5,0
			C84.1,32.9,83.7,32.9,83.7,32.9z"/>
		<path class="st25" d="M87.1,32.2H88l1.9,5.3c0.3-0.9,0.6-1.8,1-2.7c0.3-0.9,0.6-1.8,1-2.7h0.9l-2.3,6.3h-1L87.1,32.2z"/>
		<path class="st25" d="M93.5,38.5v-6.3h0.8v6.3H93.5z"/>
		<path class="st25" d="M95.8,38.5v-6.3h4.5V33h-3.6v1.8h3.5v0.8h-3.5v2h3.6v0.8L95.8,38.5L95.8,38.5z"/>
		<path class="st25" d="M101.2,36.3h0.8v0.2c0,0.2,0,0.3,0,0.5c0,0.1,0,0.2,0.1,0.3c0,0.1,0.1,0.2,0.2,0.3c0,0,0.1,0,0.2,0.1
			c0.1,0,0.2,0,0.2,0c0.1,0,0.3,0,0.5,0s0.5,0,0.8,0s0.6,0,0.8-0.1c0.2,0,0.3-0.1,0.4-0.2c0,0,0.1-0.1,0.1-0.3c0-0.1,0-0.3,0-0.5
			c0-0.4,0-0.7-0.1-0.8s-0.2-0.2-0.5-0.2l-1.9-0.1c-0.6,0-1-0.2-1.2-0.5c-0.1-0.1-0.2-0.3-0.3-0.5c-0.1-0.2-0.1-0.5-0.1-0.8
			c0-0.4,0-0.7,0.1-0.9s0.2-0.4,0.4-0.6c0.1-0.1,0.3-0.2,0.6-0.3c0.1,0,0.3,0,0.5-0.1s0.4,0,0.7,0h0.2c0.6,0,1.1,0,1.4,0.1
			c0.3,0.1,0.5,0.2,0.7,0.3c0.3,0.2,0.4,0.6,0.4,1.2c0,0.1,0,0.2,0,0.2c0,0.1,0,0.1,0,0.2h-0.8v-0.2c0-0.2,0-0.4,0-0.5
			s-0.1-0.2-0.1-0.2c-0.1-0.1-0.2-0.1-0.4-0.2c-0.2,0-0.6-0.1-1.2-0.1c-0.3,0-0.6,0-0.7,0c-0.2,0-0.3,0.1-0.4,0.1
			c-0.1,0.1-0.2,0.4-0.2,0.8c0,0.2,0,0.3,0,0.4s0.1,0.2,0.1,0.3l0,0c0,0.1,0.1,0.1,0.2,0.1s0.2,0.1,0.4,0.1l1.9,0.2
			c0.5,0,0.9,0.2,1.1,0.5s0.3,0.7,0.3,1.2c0,0.2,0,0.4,0,0.5c0,0.2,0,0.3-0.1,0.4c-0.1,0.2-0.2,0.4-0.3,0.5
			c-0.1,0.1-0.2,0.2-0.3,0.2c-0.1,0.1-0.2,0.1-0.4,0.1c-0.1,0-0.3,0.1-0.5,0.1s-0.5,0-0.9,0h-0.3c-0.3,0-0.5,0-0.7,0s-0.4,0-0.5-0.1
			c-0.1,0-0.2-0.1-0.3-0.1c-0.1-0.1-0.2-0.1-0.3-0.2l0,0c-0.2-0.1-0.3-0.3-0.4-0.6C101.3,36.9,101.3,36.6,101.2,36.3L101.2,36.3
			L101.2,36.3z"/>
		<path class="st25" d="M110.5,38.5v-6.3h0.8v5.5h3.5v0.8H110.5L110.5,38.5z"/>
		<path class="st25" d="M115.6,38.5v-6.3h0.8v6.3C116.5,38.5,115.6,38.5,115.6,38.5z"/>
		<path class="st25" d="M117.1,32.2h0.9l1.9,5.3c0.3-0.9,0.6-1.8,1-2.7c0.3-0.9,0.6-1.8,1-2.7h0.9l-2.3,6.3h-1L117.1,32.2z"/>
		<path class="st25" d="M123.6,38.5v-6.3h4.5V33h-3.6v1.8h3.5v0.8h-3.5v2h3.6v0.8L123.6,38.5L123.6,38.5z"/>
		<path class="st25" d="M132.1,38.5v-6.3h0.8v2.7h3.4v-2.7h0.8v6.3h-0.8v-2.8h-3.4v2.9L132.1,38.5L132.1,38.5z"/>
		<path class="st25" d="M138.6,38.5v-6.3h4.5V33h-3.6v1.8h3.5v0.8h-3.5v2h3.6v0.8L138.6,38.5L138.6,38.5z"/>
		<path class="st25" d="M144.2,38.5v-6.3h2.9c0.7,0,1.2,0.1,1.5,0.3s0.4,0.6,0.4,1.2v0.9c0,0.6-0.2,0.9-0.6,1.1
			c0.2,0.1,0.3,0.2,0.4,0.3c0.1,0.2,0.2,0.5,0.2,0.9v1.6h-0.9v-1.3c0-0.4-0.1-0.7-0.2-0.8c-0.1-0.1-0.4-0.2-0.8-0.2H145v2.4h-0.8
			V38.5z M145,33v2.3h1.9c0.5,0,0.8-0.1,1-0.2c0.1-0.1,0.2-0.3,0.2-0.6v-0.7c0-0.3-0.1-0.5-0.2-0.6c-0.1-0.1-0.2-0.1-0.3-0.1
			c-0.2,0-0.4,0-0.6,0C146.9,33,145,33,145,33z"/>
		<path class="st25" d="M150.3,38.5v-6.3h4.5V33h-3.6v1.8h3.5v0.8h-3.5v2h3.6v0.8L150.3,38.5L150.3,38.5z"/>
	</g>
</g>
<g id="Layer_2_2_">
	<g>
		<path class="st21" d="M72.9,38.2v-6.4h1.3l2.1,5.4c0.3-0.9,0.7-1.8,1-2.7s0.7-1.8,1-2.7h1.3v6.4h-0.8V33c-0.3,0.9-0.7,1.7-1,2.6
			s-0.7,1.7-1,2.6h-1l-2-5.2v5.2L72.9,38.2L72.9,38.2z"/>
		<path class="st21" d="M80.9,34c0-0.8,0.2-1.4,0.5-1.7s0.9-0.5,1.8-0.5H84c0.9,0,1.5,0.2,1.8,0.5l0,0c0.3,0.3,0.5,0.9,0.5,1.7v2.1
			c0,0.8-0.2,1.4-0.5,1.7s-0.9,0.5-1.8,0.5h-0.8c-0.9,0-1.5-0.2-1.8-0.5s-0.5-0.9-0.5-1.7C80.9,36.1,80.9,34,80.9,34z M83.4,32.6
			c-0.2,0-0.4,0-0.5,0s-0.3,0-0.4,0c-0.2,0-0.3,0.1-0.4,0.2s-0.2,0.2-0.2,0.4s-0.1,0.5-0.1,0.9v1.8c0,0.2,0,0.4,0,0.5
			c0,0.2,0,0.3,0.1,0.4c0,0.1,0.1,0.1,0.1,0.2s0.1,0.1,0.1,0.2c0.1,0.1,0.3,0.2,0.4,0.2s0.2,0,0.4,0.1s0.3,0,0.5,0h0.4
			c0.2,0,0.4,0,0.6,0s0.3,0,0.4-0.1c0.2,0,0.3-0.1,0.4-0.2s0.2-0.2,0.2-0.4c0-0.1,0-0.2,0.1-0.3c0-0.1,0-0.3,0-0.6v-1.8
			c0-0.2,0-0.4,0-0.6c0-0.1,0-0.3-0.1-0.4c0-0.2-0.1-0.3-0.2-0.4c-0.1,0-0.1-0.1-0.2-0.1s-0.1-0.1-0.2-0.1s-0.2,0-0.4,0
			c-0.2,0-0.3,0-0.6,0L83.4,32.6L83.4,32.6z"/>
		<path class="st21" d="M86.8,31.8h0.9l1.9,5.4c0.3-0.9,0.6-1.8,1-2.7c0.3-0.9,0.6-1.8,1-2.7h0.9l-2.3,6.4h-1L86.8,31.8z"/>
		<path class="st21" d="M93.3,38.2v-6.4h0.9v6.4H93.3z"/>
		<path class="st21" d="M95.6,38.2v-6.4h4.5v0.8h-3.7v1.9h3.6v0.8h-3.6v2.1h3.7v0.8H95.6L95.6,38.2z"/>
		<path class="st21" d="M101,36h0.9v0.2c0,0.2,0,0.3,0,0.5c0,0.1,0,0.2,0.1,0.3c0,0.1,0.1,0.3,0.2,0.3c0,0,0.1,0,0.2,0.1
			c0.1,0,0.2,0,0.2,0c0.1,0,0.3,0,0.5,0s0.5,0,0.8,0s0.6,0,0.8-0.1c0.2,0,0.3-0.1,0.4-0.2c0,0,0.1-0.1,0.1-0.3c0-0.1,0-0.3,0-0.5
			c0-0.4,0-0.7-0.1-0.8s-0.2-0.2-0.5-0.2l-1.9-0.1c-0.6,0-1-0.2-1.2-0.5c-0.1-0.1-0.2-0.3-0.3-0.5c-0.1-0.2-0.1-0.5-0.1-0.8
			c0-0.4,0-0.7,0.1-0.9s0.2-0.4,0.4-0.6c0.1-0.1,0.3-0.2,0.6-0.3c0.1,0,0.3,0,0.5-0.1c0.2,0,0.4,0,0.7,0h0.2c0.6,0,1.1,0,1.4,0.1
			s0.5,0.2,0.7,0.3c0.3,0.2,0.4,0.6,0.4,1.2c0,0.1,0,0.2,0,0.2c0,0.1,0,0.1,0,0.2h-0.8l0,0c0-0.2,0-0.4,0-0.5s-0.1-0.2-0.1-0.2
			c-0.1-0.1-0.2-0.1-0.4-0.2c-0.2,0-0.6-0.1-1.2-0.1c-0.3,0-0.6,0-0.8,0s-0.3,0.1-0.4,0.1c-0.1,0.1-0.2,0.4-0.2,0.8
			c0,0.2,0,0.3,0,0.4s0.1,0.2,0.1,0.3l0,0c0,0.1,0.1,0.1,0.2,0.1s0.2,0.1,0.4,0.1l1.9,0.2c0.5,0,0.9,0.2,1.1,0.5s0.3,0.7,0.3,1.2
			c0,0.2,0,0.4,0,0.5c0,0.2,0,0.3-0.1,0.4c-0.1,0.2-0.2,0.4-0.3,0.5c-0.1,0.1-0.2,0.2-0.3,0.2c-0.1,0.1-0.2,0.1-0.4,0.2
			c-0.1,0-0.3,0.1-0.5,0.1s-0.5,0-0.9,0h-0.3c-0.3,0-0.5,0-0.7,0s-0.4,0-0.5-0.1c-0.1,0-0.2-0.1-0.3-0.1c-0.1-0.1-0.2-0.1-0.3-0.2
			l0,0c-0.2-0.1-0.3-0.3-0.4-0.6c-0.1-0.2-0.1-0.5-0.1-0.9C101,36.4,101,36,101,36z"/>
		<path class="st21" d="M110.4,38.2v-6.4h0.8v5.5h3.5v0.8L110.4,38.2L110.4,38.2z"/>
		<path class="st21" d="M115.5,38.2v-6.4h0.9v6.4H115.5z"/>
		<path class="st21" d="M117,31.8h0.9l1.9,5.4c0.3-0.9,0.6-1.8,1-2.7c0.3-0.9,0.6-1.8,1-2.7h0.9l-2.3,6.4h-1L117,31.8z"/>
		<path class="st21" d="M123.5,38.2v-6.4h4.5v0.8h-3.7v1.9h3.6v0.8h-3.6v2.1h3.7v0.8H123.5L123.5,38.2z"/>
		<path class="st21" d="M132.1,38.2v-6.4h0.8v2.7h3.4v-2.7h0.8v6.4h-0.8v-2.9h-3.4v2.9H132.1z"/>
		<path class="st21" d="M138.7,38.2v-6.4h4.5v0.8h-3.7v1.9h3.6v0.8h-3.6v2.1h3.7v0.8H138.7L138.7,38.2z"/>
		<path class="st21" d="M144.3,38.2v-6.4h2.9c0.7,0,1.2,0.1,1.5,0.3s0.4,0.6,0.4,1.2v0.9c0,0.6-0.2,0.9-0.6,1.1
			c0.2,0.1,0.3,0.2,0.4,0.3c0.1,0.2,0.2,0.5,0.2,0.9v1.6h-0.9v-1.4c0-0.4-0.1-0.7-0.2-0.8c-0.1-0.1-0.4-0.2-0.8-0.2h-2.1v2.4
			L144.3,38.2L144.3,38.2z M145.1,32.7V35h1.9c0.5,0,0.8-0.1,1-0.2c0.1-0.1,0.2-0.3,0.2-0.6v-0.7c0-0.3-0.1-0.5-0.2-0.6
			c-0.1-0.1-0.2-0.1-0.3-0.1c-0.2,0-0.4,0-0.6,0L145.1,32.7L145.1,32.7z"/>
		<path class="st21" d="M150.4,38.2v-6.4h4.5v0.8h-3.7v1.9h3.6v0.8h-3.6v2.1h3.7v0.8H150.4L150.4,38.2z"/>
	</g>
</g>
<rect x="0.5" y="0.5" class="st26" width="215.7" height="53"/>
<path class="st27" d="M74.6,7.5c-3.4-0.3-6.8,0.2-9.9,1.4c-0.9,0.3-1.8,0.8-2.3,1.6c-1,1.6,0.2,3.7,1.7,4.9c2.5,2.1,5.9,3,8.7,4.7
	c1.2,0.7,2.4,1.7,2.5,3.1c0.1,1-0.4,1.9-1,2.7c-2.5,3.1-6.9,3.6-10.9,4"/>
<path class="st27" d="M77.3,6.7c-0.1,6.3,0.3,12.6,1.1,18.9c-0.1-1.3-0.3-2.6-0.4-4c-0.1-0.6-0.1-1.2,0-1.8c0.3-1.3,1.5-2.2,2.6-3
	c0.2-0.2,0.5-0.3,0.7-0.3c0.3,0,0.6,0.1,0.8,0.2c0.8,0.3,1.7,0.5,2.6,0.6c0.4-4,0.7-7.9,1.1-11.9c0.1,5.2,0.1,10.5,0.2,15.7
	c0,1.4,0.1,2.9,1.1,3.8"/>
</svg>
